<svg version="1.1" xmlns="http://www.w3.org/2000/svg" xmlns:xlink="http://www.w3.org/1999/xlink" width="24" height="26" viewBox="0 0 24 26"><path id="Thinking" d="M22.798,16.989 C22.592,17.014 22.384,17.034 22.181,17.079 C21.873,17.147 21.834,17.212 21.947,17.513 C22.022,17.713 22.120,17.910 22.238,18.088 C22.326,18.222 22.345,18.338 22.285,18.480 C22.253,18.556 22.237,18.639 22.208,18.717 C22.125,18.935 22.127,19.115 22.276,19.334 C22.551,19.741 22.504,20.199 22.281,20.617 C21.677,21.747 20.734,22.410 19.448,22.522 C18.861,22.573 18.266,22.527 17.675,22.543 C16.456,22.576 15.939,23.226 16.175,24.422 C16.220,24.649 16.287,24.871 16.354,25.132 C12.301,25.132 8.277,25.132 4.211,25.132 C4.257,24.832 4.293,24.548 4.345,24.266 C4.603,22.869 4.852,21.470 5.132,20.078 C5.239,19.551 5.145,19.072 4.865,18.647 C4.459,18.031 4.012,17.440 3.565,16.851 C2.886,15.957 2.165,15.094 1.515,14.179 C0.936,13.366 0.512,12.455 0.458,11.444 C0.418,10.692 0.464,9.931 0.537,9.180 C0.678,7.710 1.079,6.309 1.802,5.011 C2.956,2.939 4.715,1.595 6.950,0.878 C9.440,0.079 11.981,-0.119 14.543,0.483 C16.867,1.028 18.708,2.326 20.120,4.235 C20.461,4.697 20.776,5.177 21.094,5.655 C21.583,6.391 21.715,7.232 21.723,8.084 C21.730,8.981 21.681,9.880 21.614,10.774 C21.574,11.298 21.617,11.785 21.900,12.235 C22.338,12.932 22.782,13.625 23.216,14.324 C23.404,14.627 23.581,14.938 23.752,15.251 C24.296,16.253 23.593,16.891 22.798,16.989 zM23.088,15.733 C22.926,15.407 22.745,15.088 22.554,14.776 C22.085,14.011 21.596,13.258 21.133,12.489 C20.856,12.029 20.751,11.521 20.799,10.980 C20.850,10.401 20.910,9.819 20.913,9.238 C20.915,8.550 20.891,7.859 20.823,7.175 C20.744,6.379 20.224,5.782 19.796,5.151 C18.429,3.135 16.606,1.745 14.195,1.223 C11.704,0.685 9.250,0.914 6.862,1.757 C4.963,2.426 3.482,3.632 2.497,5.407 C1.838,6.594 1.488,7.879 1.331,9.220 C1.292,9.559 1.282,9.900 1.244,10.239 C1.097,11.542 1.457,12.717 2.200,13.770 C2.765,14.571 3.400,15.323 3.989,16.107 C4.539,16.838 5.096,17.564 5.599,18.326 C5.914,18.803 6.063,19.364 5.961,19.947 C5.786,20.946 5.588,21.940 5.403,22.937 C5.317,23.397 5.238,23.859 5.154,24.333 C8.566,24.333 11.940,24.333 15.337,24.333 C15.337,24.111 15.329,23.920 15.339,23.730 C15.390,22.747 15.957,22.042 16.921,21.839 C17.332,21.752 17.764,21.765 18.187,21.744 C18.685,21.718 19.191,21.749 19.682,21.676 C20.520,21.552 21.113,21.038 21.534,20.326 C21.728,19.998 21.696,19.709 21.434,19.582 C21.165,19.452 21.181,19.298 21.262,19.070 C21.388,18.716 21.484,18.393 21.285,17.987 C20.802,17.001 21.202,16.365 22.303,16.241 C22.501,16.219 22.701,16.195 22.893,16.143 C23.132,16.077 23.196,15.950 23.088,15.733 zM17.599,8.365 C17.506,8.736 17.444,8.793 17.062,8.837 C16.715,8.877 16.366,8.907 15.993,8.945 C16.014,9.278 16.032,9.599 16.053,9.919 C16.076,10.268 16.025,10.359 15.710,10.500 C15.270,10.698 14.829,10.893 14.387,11.087 C14.057,11.233 13.954,11.207 13.702,10.956 C13.450,10.704 13.190,10.462 12.918,10.200 C12.681,10.412 12.430,10.629 12.187,10.854 C11.996,11.030 11.802,11.050 11.573,10.924 C11.136,10.682 10.692,10.454 10.252,10.218 C9.958,10.061 9.900,9.943 9.948,9.612 C9.999,9.260 10.050,8.908 10.103,8.536 C9.762,8.474 9.445,8.407 9.126,8.361 C8.857,8.323 8.712,8.188 8.668,7.919 C8.583,7.403 8.485,6.888 8.392,6.373 C8.349,6.134 8.453,5.975 8.655,5.860 C8.981,5.677 9.304,5.489 9.650,5.291 C9.484,4.979 9.342,4.688 9.178,4.409 C9.044,4.182 9.063,3.988 9.238,3.796 C9.591,3.408 9.941,3.018 10.291,2.627 C10.450,2.449 10.637,2.414 10.855,2.503 C11.146,2.621 11.438,2.736 11.748,2.859 C11.848,2.588 11.949,2.335 12.034,2.078 C12.117,1.829 12.286,1.719 12.541,1.720 C13.050,1.722 13.559,1.725 14.067,1.721 C14.338,1.719 14.501,1.841 14.587,2.096 C14.702,2.442 14.833,2.782 14.965,3.144 C15.289,3.041 15.599,2.952 15.904,2.844 C16.167,2.751 16.365,2.799 16.537,3.029 C16.830,3.423 17.141,3.803 17.442,4.191 C17.655,4.466 17.658,4.586 17.467,4.887 C17.281,5.183 17.095,5.478 16.894,5.798 C17.164,5.980 17.429,6.161 17.697,6.339 C17.987,6.532 18.030,6.634 17.949,6.963 C17.834,7.430 17.717,7.898 17.599,8.365 zM16.283,6.352 C16.021,6.171 15.945,5.835 16.100,5.559 C16.153,5.465 16.216,5.377 16.272,5.285 C16.413,5.050 16.671,4.810 16.662,4.582 C16.652,4.355 16.373,4.139 16.212,3.919 C16.178,3.872 16.150,3.810 16.103,3.784 C16.029,3.744 15.932,3.692 15.861,3.710 C15.588,3.781 15.322,3.880 15.052,3.963 C14.697,4.072 14.406,3.931 14.274,3.584 C14.159,3.281 14.059,2.972 13.934,2.674 C13.905,2.607 13.800,2.534 13.725,2.530 C13.451,2.512 13.175,2.509 12.901,2.528 C12.820,2.534 12.709,2.614 12.675,2.689 C12.565,2.930 12.487,3.185 12.393,3.434 C12.268,3.767 12.086,3.852 11.751,3.724 C11.463,3.615 11.182,3.487 10.891,3.387 C10.821,3.363 10.697,3.391 10.644,3.443 C10.448,3.634 10.278,3.852 10.084,4.047 C9.981,4.151 9.988,4.235 10.055,4.352 C10.188,4.582 10.310,4.818 10.433,5.055 C10.608,5.393 10.517,5.713 10.188,5.906 C9.930,6.059 9.672,6.212 9.407,6.350 C9.267,6.422 9.214,6.501 9.254,6.663 C9.311,6.896 9.359,7.135 9.379,7.374 C9.396,7.563 9.488,7.625 9.658,7.646 C9.897,7.677 10.134,7.724 10.373,7.764 C10.768,7.830 10.979,8.119 10.921,8.512 C10.876,8.808 10.838,9.105 10.789,9.400 C10.767,9.531 10.796,9.614 10.926,9.677 C11.166,9.791 11.402,9.917 11.630,10.054 C11.757,10.129 11.838,10.099 11.934,10.007 C12.121,9.829 12.315,9.658 12.510,9.489 C12.832,9.211 13.139,9.222 13.433,9.522 C13.649,9.741 13.855,9.971 14.079,10.182 C14.133,10.232 14.257,10.260 14.324,10.235 C14.589,10.136 14.849,10.021 15.099,9.891 C15.165,9.857 15.231,9.747 15.230,9.673 C15.229,9.399 15.196,9.125 15.183,8.851 C15.164,8.436 15.379,8.198 15.794,8.159 C16.093,8.131 16.392,8.106 16.688,8.060 C16.762,8.048 16.864,7.970 16.885,7.902 C16.980,7.585 17.051,7.261 17.133,6.927 C16.846,6.733 16.562,6.546 16.283,6.352 zM13.220,8.706 C11.949,8.707 10.938,7.699 10.937,6.428 C10.936,5.215 11.958,4.193 13.183,4.181 C14.443,4.169 15.482,5.197 15.479,6.453 C15.477,7.690 14.458,8.705 13.220,8.706 zM13.207,4.988 C12.399,4.986 11.741,5.639 11.742,6.442 C11.742,7.249 12.398,7.910 13.196,7.909 C14.020,7.908 14.673,7.260 14.678,6.440 C14.682,5.645 14.019,4.990 13.207,4.988 zM8.987,8.652 C9.220,8.955 9.456,9.257 9.696,9.555 C9.858,9.756 9.875,9.953 9.727,10.170 C9.591,10.368 9.471,10.576 9.331,10.800 C9.524,10.932 9.707,11.058 9.892,11.182 C10.087,11.313 10.164,11.479 10.100,11.716 C9.999,12.085 9.912,12.457 9.824,12.829 C9.765,13.080 9.613,13.213 9.355,13.233 C9.123,13.251 8.891,13.277 8.621,13.304 C8.630,13.513 8.637,13.716 8.650,13.919 C8.673,14.261 8.613,14.364 8.308,14.500 C7.982,14.646 7.655,14.792 7.330,14.941 C7.088,15.052 6.887,15.019 6.701,14.817 C6.539,14.642 6.353,14.487 6.165,14.311 C6.012,14.447 5.845,14.595 5.679,14.744 C5.505,14.900 5.325,14.934 5.109,14.812 C4.777,14.623 4.436,14.448 4.095,14.274 C3.884,14.165 3.790,14.002 3.822,13.767 C3.855,13.520 3.887,13.274 3.925,12.985 C3.740,12.954 3.556,12.923 3.372,12.893 C2.996,12.832 2.889,12.724 2.829,12.354 C2.774,12.019 2.722,11.682 2.651,11.349 C2.597,11.091 2.678,10.912 2.902,10.785 C3.117,10.664 3.330,10.537 3.559,10.404 C3.448,10.195 3.351,10.004 3.247,9.817 C3.126,9.599 3.155,9.408 3.323,9.225 C3.583,8.944 3.837,8.658 4.091,8.371 C4.249,8.194 4.435,8.153 4.654,8.241 C4.838,8.314 5.023,8.385 5.232,8.467 C5.296,8.289 5.354,8.143 5.402,7.993 C5.479,7.759 5.629,7.639 5.883,7.643 C6.275,7.649 6.667,7.647 7.058,7.643 C7.298,7.641 7.451,7.746 7.529,7.972 C7.610,8.207 7.698,8.439 7.791,8.693 C8.015,8.623 8.228,8.562 8.436,8.489 C8.663,8.410 8.841,8.462 8.987,8.652 zM8.115,9.433 C8.036,9.476 7.942,9.490 7.854,9.518 C7.501,9.628 7.230,9.497 7.098,9.150 C7.051,9.026 6.997,8.903 6.969,8.774 C6.913,8.514 6.773,8.419 6.500,8.436 C6.096,8.460 6.095,8.441 5.953,8.831 C5.930,8.893 5.908,8.956 5.885,9.018 C5.748,9.387 5.573,9.469 5.214,9.330 C5.043,9.264 4.872,9.199 4.707,9.121 C4.588,9.065 4.517,9.094 4.430,9.188 C4.048,9.601 4.045,9.598 4.305,10.095 C4.325,10.132 4.345,10.168 4.364,10.205 C4.525,10.521 4.447,10.812 4.144,10.997 C3.966,11.105 3.778,11.196 3.605,11.310 C3.550,11.347 3.492,11.436 3.496,11.497 C3.539,12.099 3.543,12.099 4.132,12.206 C4.666,12.303 4.796,12.481 4.732,13.033 C4.653,13.707 4.653,13.707 5.274,13.984 C5.281,13.987 5.291,13.986 5.317,13.989 C5.450,13.870 5.592,13.743 5.733,13.615 C6.089,13.292 6.373,13.305 6.702,13.659 C7.186,14.181 7.186,14.181 7.837,13.822 C7.832,13.713 7.829,13.598 7.821,13.482 C7.813,13.366 7.796,13.251 7.792,13.135 C7.781,12.813 7.981,12.582 8.303,12.541 C8.501,12.516 8.699,12.489 8.899,12.477 C9.048,12.468 9.108,12.404 9.141,12.257 C9.261,11.727 9.267,11.728 8.813,11.422 C8.758,11.385 8.702,11.348 8.650,11.307 C8.435,11.140 8.371,10.852 8.501,10.616 C8.577,10.478 8.652,10.335 8.754,10.216 C8.946,9.994 8.907,9.831 8.729,9.602 C8.544,9.364 8.381,9.285 8.115,9.433 zM6.375,13.141 C5.367,13.128 4.569,12.304 4.579,11.289 C4.589,10.296 5.414,9.494 6.416,9.504 C7.409,9.514 8.226,10.342 8.217,11.330 C8.207,12.341 7.381,13.153 6.375,13.141 zM6.396,10.304 C5.840,10.304 5.380,10.764 5.380,11.321 C5.379,11.881 5.838,12.341 6.394,12.341 C6.948,12.342 7.414,11.877 7.415,11.323 C7.416,10.768 6.952,10.305 6.396,10.304 z" fill="#757575" /></svg>